<svg xmlns="http://www.w3.org/2000/svg" width="1em" height="1em" viewBox="0 0 24 24"><path fill="currentColor" d="M7 14q-.825 0-1.412-.588Q5 12.825 5 12t.588-1.413Q6.175 10 7 10t1.412.587Q9 11.175 9 12q0 .825-.588 1.412Q7.825 14 7 14Zm0 4q-2.5 0-4.25-1.75T1 12q0-2.5 1.75-4.25T7 6q1.675 0 3.038.825Q11.4 7.65 12.2 9h8.375q.2 0 .388.075q.187.075.337.225l2 2q.15.15.213.325q.062.175.062.375t-.062.375q-.063.175-.213.325l-3.175 3.175q-.125.125-.3.2q-.175.075-.35.1q-.175.025-.35-.025t-.325-.175L17.5 15l-1.425 1.075q-.125.1-.275.15q-.15.05-.3.05t-.312-.05q-.163-.05-.288-.15L13.375 15H12.2q-.8 1.35-2.162 2.175Q8.675 18 7 18Zm0-2q1.4 0 2.463-.85q1.062-.85 1.412-2.15H14l1.45 1.025v.012v-.012L17.5 12.5l1.775 1.375L21.15 12h-.012h.012l-1-1v-.012V11h-9.275q-.35-1.3-1.412-2.15Q8.4 8 7 8Q5.35 8 4.175 9.175Q3 10.35 3 12q0 1.65 1.175 2.825Q5.35 16 7 16Z"/></svg>